<svg xmlns="http://www.w3.org/2000/svg" viewBox="0 0 100 100" width="100" height="100"><switch transform="translate(0 -1)"><g><path d="M71.6 32.8c-1.2-1.1-3.1-1-4.2.3-1.1 1.2-1 3.1.3 4.2 3.7 3.2 5.8 7.9 5.8 12.8s-2.1 9.5-5.8 12.8c-1.2 1.1-1.4 3-.3 4.2.6.7 1.4 1 2.2 1 .7 0 1.4-.2 2-.8 4.9-4.4 7.8-10.7 7.8-17.2s-2.8-13-7.8-17.3z"/><path d="M82.7 25.7c-1.2-1.1-3.1-1-4.2.2s-1 3.1.2 4.2c5.6 5.1 8.8 12.4 8.8 19.9 0 7.5-3.2 14.8-8.8 19.9-1.2 1.1-1.3 3-.2 4.2.6.6 1.4 1 2.2 1 .7 0 1.5-.3 2-.8 6.8-6.2 10.7-15.1 10.7-24.3 0-9.2-3.9-18.1-10.7-24.3zm-23-10.2c-1.6-.9-3.5-.9-5 0L26.8 31.9H14.6c-4.4 0-8 3.6-8 8v20.3c0 4.4 3.6 8 8 8h12.2l27.8 16.3c.8.5 1.7.7 2.5.7.9 0 1.7-.2 2.5-.7 1.6-.9 2.5-2.6 2.5-4.3V19.8c.1-1.8-.9-3.4-2.4-4.3zM12.6 60.1V39.9c0-1.1.9-2 2-2h10v24.3h-10c-1.1-.1-2-.9-2-2.1zm43.6 18.3l-25.5-15V36.5l25.5-15z"/><path d="M36.1 42.4c.5 1 1.6 1.6 2.7 1.6.5 0 .9-.1 1.4-.3l10.3-5.3c1.5-.8 2-2.6 1.3-4-.8-1.5-2.6-2.1-4-1.3l-10.3 5.3c-1.6.8-2.2 2.6-1.4 4z"/></g></switch></svg>